<?xml version="1.0" encoding="UTF-8" standalone="no"?>
<svg xmlns:dc="http://purl.org/dc/elements/1.1/" xmlns:cc="http://creativecommons.org/ns#" xmlns:rdf="http://www.w3.org/1999/02/22-rdf-syntax-ns#" xmlns:svg="http://www.w3.org/2000/svg" xmlns="http://www.w3.org/2000/svg" xmlns:sodipodi="http://sodipodi.sourceforge.net/DTD/sodipodi-0.dtd" xmlns:inkscape="http://www.inkscape.org/namespaces/inkscape" width="512.04694" height="155.25383" viewBox="0 0 512.04694 155.25383" fill="none" version="1.1" id="svg48" sodipodi:docname="600b42e29012810cc510ce6a_wom-logo-rebranded-purp.svg" inkscape:version="1.0.2 (e86c870879, 2021-01-15, custom)">
  <metadata id="metadata54">
    <rdf:RDF>
      <cc:Work rdf:about="">
        <dc:format>image/svg+xml</dc:format>
        <dc:type rdf:resource="http://purl.org/dc/dcmitype/StillImage"/>
        <dc:title/>
      </cc:Work>
    </rdf:RDF>
  </metadata>
  <defs id="defs52"/>
  <sodipodi:namedview pagecolor="#ffffff" bordercolor="#666666" borderopacity="1" objecttolerance="10" gridtolerance="10" guidetolerance="10" inkscape:pageopacity="0" inkscape:pageshadow="2" inkscape:window-width="1366" inkscape:window-height="715" id="namedview50" showgrid="false" inkscape:zoom="0.74428572" inkscape:cx="237.41958" inkscape:cy="-43.673728" inkscape:window-x="-8" inkscape:window-y="-8" inkscape:window-maximized="1" inkscape:current-layer="svg48"/>
  <path d="M 196.26741,92.69937 H 178.76262 L 172.40811,77.050747 H 141.57427 L 135.31635,92.69937 H 117.85718 L 148.98684,13.2363 h 16.08829 l 31.19786,79.46307 z M 147.17769,62.083379 h 19.77479 l -9.89322,-25.961718 z" fill="#5000b9" id="path12" style="stroke-width:2.32749"/>
  <path d="M 217.88487,92.699371 H 201.79659 V 37.149015 h 15.85506 v 3.853852 c 3.53313,-3.403717 8.27026,-5.278275 13.18126,-5.216131 13.65327,0 22.61874,8.837467 22.61874,24.593854 V 92.699371 H 237.36407 V 61.629286 c 0,-5.885981 -2.68592,-10.875182 -9.19939,-10.875182 -7.61158,0 -10.24001,5.676042 -10.24001,14.189989 l -0.0567,27.783441" fill="#5000b9" id="path14" style="stroke-width:2.32749"/>
  <path d="m 317.49245,71.045598 c -2.61841,13.491742 -12.8454,22.896651 -27.87631,22.896651 -16.82074,0 -29.31469,-12.36198 -29.31469,-29.026551 0,-16.664573 12.5149,-29.128962 29.31469,-29.128962 14.65386,0 24.88316,9.081621 26.93834,22.215628 h -17.70984 c -0.60981,-2.089618 -1.89923,-3.916229 -3.67046,-5.188667 -1.76888,-1.272436 -3.9125,-1.917382 -6.09336,-1.832429 -6.82651,0 -12.27516,5.777985 -12.27516,13.93443 0,8.156211 5.45563,13.95142 12.5149,13.95142 2.37636,0.08333 4.7085,-0.647042 6.61239,-2.069834 1.90155,-1.423026 3.25848,-3.452594 3.845,-5.751686 h 17.73778" fill="#5000b9" id="path16" style="stroke-width:2.32749"/>
  <path d="M 340.19708,92.69937 H 324.11415 V 13.2363 h 16.08293 v 27.062735 c 3.64253,-2.999199 8.23698,-4.608657 12.95945,-4.540694 13.65303,0 22.60223,8.837466 22.60223,24.593853 V 92.670975 H 359.68048 V 61.629286 c 0,-5.885981 -2.6836,-10.875182 -9.20987,-10.875182 -7.61786,0 -10.24094,5.676042 -10.24094,14.189988 z" fill="#5000b9" id="path18" style="stroke-width:2.32749"/>
  <path d="m 412.18858,35.786736 c 16.81143,0 29.65683,12.487199 29.65683,29.128962 0,16.641762 -12.8454,29.026551 -29.65683,29.026551 -16.80911,0 -29.66615,-12.36198 -29.66615,-29.026551 0,-16.664573 12.85704,-29.128962 29.66615,-29.128962 z m 0,43.188145 c 7.60157,0 13.18288,-5.897153 13.18288,-14.059183 0,-8.162031 -5.58131,-14.053597 -13.18288,-14.053597 -7.59925,0 -13.18522,5.897152 -13.18522,14.053597 0,8.156211 5.57434,14.059183 13.18522,14.059183 z" fill="#5000b9" id="path20" style="stroke-width:2.32749"/>
  <path d="m 485.68362,56.191579 c -2.86979,-2.684058 -6.63101,-4.216242 -10.56446,-4.302359 -4.89238,0 -10.348,2.673584 -10.348,10.784409 V 92.716362 H 448.68357 V 37.149015 h 15.86182 v 4.642869 c -0.10939,0 3.19098,-5.443293 11.13702,-5.443293 1.85966,-0.08402 3.71234,0.230655 5.43934,0.922849 1.72467,0.692428 3.28176,1.74608 4.56187,3.089971 v 15.830168" fill="#5000b9" id="path22" style="stroke-width:2.32749"/>
  <path d="M 494.70729,87.000753 V 73.378439 h 5.80242 c 1.07297,-0.04888 2.14594,0.07588 3.17935,0.368906 0.66101,0.245317 1.21961,0.705228 1.58734,1.305488 0.39102,0.646808 0.58886,1.390905 0.57024,2.145476 0.0163,0.697083 -0.15594,1.385786 -0.50041,1.99233 -0.11637,0.191086 -0.25137,0.371467 -0.398,0.539046 -0.60981,0.634937 -1.40813,1.058773 -2.27628,1.209129 0.37705,0.378681 0.73781,0.776682 1.0753,1.191905 0.58187,0.69266 1.10788,1.430939 1.56872,2.207854 0.35378,0.567674 0.92168,1.481446 1.66881,2.656361 h -3.29572 l -1.99001,-2.962658 c -0.44221,-0.696617 -0.92866,-1.363907 -1.457,-1.998147 -0.22577,-0.252765 -0.50739,-0.447576 -0.82393,-0.567441 -0.45153,-0.122193 -0.92169,-0.173863 -1.38951,-0.153382 h -0.56791 v 5.676042 z m 2.75807,-7.8555 h 2.02025 c 0.8286,0.04003 1.65951,-0.01537 2.47413,-0.164786 0.31421,-0.09985 0.58652,-0.299316 0.77505,-0.567441 0.19551,-0.303971 0.29326,-0.660774 0.2793,-1.021768 0.0256,-0.410568 -0.10474,-0.815783 -0.36542,-1.135115 -0.27232,-0.29466 -0.64239,-0.483651 -1.04039,-0.53346 -0.22344,-0.02839 -0.89375,-0.04562 -2.00862,-0.04562 h -2.15059 z" fill="#5000b9" id="path24" style="stroke-width:2.32749"/>
  <path d="m 499.83242,92.364446 c -1.60132,0.0028 -3.18867,-0.31072 -4.66895,-0.922617 -1.48028,-0.611662 -2.82324,-1.509607 -3.95439,-2.641929 -0.55162,-0.552081 -1.05202,-1.154434 -1.49192,-1.799147 -1.58502,-2.340986 -2.30421,-5.160038 -2.0319,-7.972574 0.27232,-2.812534 1.51752,-5.442361 3.52382,-7.437482 0.54928,-0.55371 1.15443,-1.051792 1.80379,-1.487265 2.01328,-1.362976 4.39197,-2.091712 6.82653,-2.091712 2.43222,0 4.81091,0.728736 6.82651,2.091712 0.64704,0.435473 1.2522,0.933555 1.80148,1.487265 1.11486,1.108348 2.00397,2.420818 2.61842,3.865256 0.79134,1.865946 1.1009,3.90017 0.90306,5.916704 -0.19783,2.016767 -0.90074,3.951607 -2.0412,5.628096 -0.43989,0.644713 -0.93798,1.247066 -1.48959,1.799147 -1.13116,1.133951 -2.47412,2.032827 -3.9544,2.64449 -1.48028,0.611896 -3.06763,0.92471 -4.67126,0.920056 z m 0,-23.310943 c -2.20879,0 -4.36637,0.653325 -6.20276,1.877583 -1.83871,1.224491 -3.26779,2.96452 -4.11499,5.000373 -0.84488,2.035852 -1.066,4.276291 -0.63541,6.437595 0.43059,2.161304 1.49425,4.146418 3.05599,5.70467 1.56174,1.558252 3.55174,2.619353 5.71864,3.04924 2.16688,0.429886 4.41291,0.209242 6.45179,-0.634008 2.0412,-0.843248 3.7845,-2.271393 5.01341,-4.103591 1.22658,-1.832197 1.8806,-3.986519 1.8806,-6.190183 0,-2.954512 -1.1777,-5.787528 -3.27244,-7.876681 -2.09474,-2.089151 -4.93427,-3.263601 -7.89483,-3.264998 z" fill="#5000b9" id="path26" style="stroke-width:2.32749"/>
  <path d="m 322.97601,147.79541 h -3.45399 v -26.86409 h 3.45399 v 11.53922 c 0.53532,-0.92565 1.32434,-1.67835 2.27628,-2.16829 1.12185,-0.60654 2.38568,-0.90796 3.66347,-0.87421 2.60445,0 4.62704,0.87793 6.0631,2.63378 1.41511,1.97581 2.16922,4.34636 2.15758,6.77485 -0.014,2.42828 -0.79368,4.79067 -2.22973,6.75088 -0.74247,0.88793 -1.67812,1.5927 -2.73713,2.05936 -1.059,0.46689 -2.21111,0.68266 -3.36786,0.63098 -2.65567,0 -4.58981,-1.02735 -5.80243,-3.08206 z m 9.1028,-4.37614 c 1.01944,-1.32667 1.53381,-2.97244 1.45002,-4.64288 0.0907,-1.64925 -0.41895,-3.27593 -1.43372,-4.58048 -0.46783,-0.55767 -1.05901,-1.0013 -1.72467,-1.29642 -0.66567,-0.29513 -1.39184,-0.43407 -2.12034,-0.40637 -0.72617,-0.0198 -1.4477,0.12288 -2.11103,0.41754 -0.66334,0.29467 -1.25219,0.73386 -1.72467,1.28525 -1.03341,1.28174 -1.56174,2.89702 -1.48493,4.54069 -0.0768,1.66833 0.44919,3.30875 1.48493,4.62028 0.46317,0.56698 1.04737,1.02084 1.71303,1.32691 0.66334,0.30606 1.38951,0.45595 2.12267,0.43827 0.7285,0.03 1.45235,-0.10823 2.11801,-0.40336 0.66799,-0.29536 1.25684,-0.74014 1.72234,-1.29943 z" fill="#5000b9" id="path28" style="stroke-width:2.32749"/>
  <path d="m 345.31756,155.25384 h -3.8357 l 4.46645,-9.42772 -7.697,-15.89278 h 4.01491 l 5.57666,12.32265 5.35788,-12.32265 h 3.75423 z" fill="#5000b9" id="path30" style="stroke-width:2.32749"/>
  <path d="m 386.76079,127.45876 -3.27246,1.13534 c -0.20249,-1.18748 -0.79134,-2.27581 -1.67113,-3.09927 -1.05668,-0.87584 -2.37868,-1.366 -3.75191,-1.38975 -1.37321,-0.0238 -2.71384,0.42035 -3.79846,1.2594 -0.46084,0.37799 -0.82858,0.85419 -1.07995,1.39347 -0.25137,0.53928 -0.37705,1.1279 -0.37007,1.72257 -0.0256,0.89679 0.28395,1.77099 0.87048,2.45202 0.66566,0.715 1.54545,1.19679 2.50903,1.37344 l 3.94276,0.8514 c 1.92483,0.33353 3.69606,1.26289 5.06229,2.65636 1.18468,1.2864 1.82242,2.98151 1.78052,4.72805 0.005,1.04388 -0.2211,2.07612 -0.65635,3.02481 -0.43524,0.94891 -1.07296,1.79146 -1.86897,2.46946 -1.68743,1.53265 -3.88224,2.29886 -6.58213,2.29886 -2.95591,0 -5.26943,-0.77389 -6.94056,-2.32144 -1.6083,-1.42302 -2.64403,-3.37881 -2.91867,-5.50567 l 3.49821,-1.13511 c 0.11637,1.51706 0.77738,2.94148 1.85966,4.01281 0.59584,0.55837 1.29641,0.99058 2.06449,1.27058 0.76574,0.28 1.58035,0.40195 2.3973,0.35843 1.73631,0 3.07461,-0.39544 4.01492,-1.18632 0.45152,-0.35983 0.81229,-0.81811 1.059,-1.33993 0.24439,-0.52159 0.36542,-1.09253 0.35145,-1.66834 0.0163,-0.9559 -0.34447,-1.88014 -1.00082,-2.57677 -0.796,-0.79506 -1.82242,-1.32107 -2.93495,-1.50425 l -3.76122,-0.81718 c -1.77821,-0.32491 -3.41442,-1.19144 -4.68058,-2.4804 -1.18469,-1.28058 -1.81311,-2.97569 -1.7526,-4.71688 0.007,-1.04086 0.23974,-2.06797 0.67963,-3.012 0.43757,-0.9438 1.0753,-1.78262 1.86897,-2.45946 1.66416,-1.55802 3.87294,-2.4036 6.1562,-2.35565 2.70221,0 4.77367,0.65472 6.21206,1.96393 1.37322,1.20284 2.32516,2.81463 2.71386,4.59749 z" fill="#5000b9" id="path32" style="stroke-width:2.32749"/>
  <path d="m 393.97367,154.84512 h -3.45865 v -24.90037 h 3.38416 v 2.78693 c 0.55162,-0.97056 1.36391,-1.76842 2.34378,-2.30444 1.11719,-0.60911 2.37404,-0.91425 3.64718,-0.88539 2.57885,0 4.59212,0.8777 6.04216,2.63356 1.41976,1.95509 2.17852,4.31167 2.16688,6.72666 -0.014,2.41525 -0.79832,4.76321 -2.24137,6.70271 -0.74014,0.87979 -1.67579,1.57849 -2.73014,2.0419 -1.05436,0.4634 -2.19948,0.6794 -3.35159,0.63145 -1.21494,0.024 -2.41593,-0.25719 -3.49355,-0.81742 -0.9403,-0.47574 -1.7363,-1.1926 -2.30886,-2.07728 z m 10.56445,-15.99471 c 0.0628,-1.61085 -0.44454,-3.19262 -1.43372,-4.46715 -0.45852,-0.57372 -1.04505,-1.03247 -1.71304,-1.339 -0.66798,-0.30653 -1.39882,-0.45246 -2.13198,-0.42616 -0.73548,-0.0219 -1.46631,0.12591 -2.1343,0.43221 -0.66798,0.30607 -1.25684,0.76249 -1.71769,1.33295 -1.01012,1.26546 -1.53147,2.85071 -1.46863,4.46715 -0.0675,1.63971 0.45153,3.25033 1.46863,4.5407 0.46085,0.57069 1.04971,1.02688 1.71769,1.33318 0.66799,0.30606 1.39882,0.45409 2.1343,0.43198 0.73084,0.0224 1.45702,-0.12546 2.12267,-0.43175 0.66333,-0.3063 1.24754,-0.76295 1.70605,-1.33341 1.00548,-1.29502 1.51985,-2.90378 1.45002,-4.5407 z" fill="#5000b9" id="path34" style="stroke-width:2.32749"/>
  <path d="m 413.66885,132.07905 c 1.74795,-1.72327 4.10569,-2.68941 6.5612,-2.68941 2.45782,0 4.81556,0.96614 6.56351,2.68941 0.85884,0.90144 1.52916,1.9644 1.9737,3.12675 0.44455,1.16234 0.65403,2.40103 0.61446,3.64461 0.0419,1.24777 -0.16293,2.49157 -0.60282,3.66021 -0.44223,1.16863 -1.10788,2.23927 -1.96439,3.15072 -1.75493,1.72466 -4.11966,2.69127 -6.58446,2.69127 -2.46249,0 -4.82955,-0.96661 -6.58447,-2.69127 -0.85419,-0.91145 -1.52217,-1.98209 -1.96207,-3.15072 -0.43989,-1.16864 -0.64471,-2.41244 -0.60282,-3.66021 -0.0396,-1.24358 0.16991,-2.48227 0.61214,-3.64461 0.44454,-1.16235 1.11718,-2.22531 1.97602,-3.12675 z m 2.59981,11.4652 c 0.51205,0.53462 1.12651,0.96009 1.80613,1.25079 0.68196,0.2907 1.41511,0.4406 2.15526,0.4406 0.74246,0 1.47329,-0.1499 2.15524,-0.4406 0.68196,-0.2907 1.29641,-0.71617 1.80846,-1.25079 1.07297,-1.13512 1.61062,-2.69988 1.61528,-4.69384 0,-1.97534 -0.57024,-3.53057 -1.61528,-4.65427 -0.51205,-0.53463 -1.1265,-0.96009 -1.80846,-1.2508 -0.68195,-0.2907 -1.41278,-0.44059 -2.15524,-0.44059 -0.74015,0 -1.4733,0.14989 -2.15526,0.44059 -0.67962,0.29071 -1.29408,0.71617 -1.80613,1.2508 -1.0753,1.13511 -1.61528,2.67893 -1.61528,4.65427 0,1.9751 0.53998,3.57013 1.61528,4.69384 z" fill="#5000b9" id="path36" style="stroke-width:2.32749"/>
  <path d="m 438.34254,124.30292 v 5.63624 h 3.86828 v 3.15584 h -3.86828 v 9.27992 c -0.0605,0.33795 -0.0349,0.68475 0.0698,1.01107 0.10474,0.32607 0.28862,0.62212 0.533,0.86256 0.24439,0.24042 0.54463,0.41802 0.87281,0.51786 0.33051,0.0996 0.6773,0.11847 1.01479,0.0549 0.46316,0.006 0.92633,-0.044 1.37786,-0.14756 v 2.96848 c -0.76807,0.24857 -1.57337,0.36192 -2.37868,0.33492 -0.66799,0.0347 -1.33365,-0.0661 -1.96208,-0.29629 -0.62609,-0.23042 -1.19865,-0.58536 -1.6851,-1.04318 -0.46549,-0.50204 -0.8216,-1.09298 -1.05202,-1.73677 -0.23042,-0.64378 -0.32585,-1.32736 -0.28395,-2.00932 v -9.79103 h -3.41443 v -3.15584 h 0.96824 c 0.37938,0.0293 0.75875,-0.0235 1.11486,-0.15478 0.3561,-0.13127 0.67963,-0.33796 0.94961,-0.60585 0.47481,-0.54835 0.72153,-1.25707 0.68895,-1.98092 v -2.90028 z" fill="#5000b9" id="path38" style="stroke-width:2.32749"/>
  <path d="m 446.80063,124.95555 c -0.23508,-0.22833 -0.41895,-0.50228 -0.54463,-0.80485 -0.12336,-0.30257 -0.18388,-0.62749 -0.17689,-0.9545 -0.007,-0.33027 0.0535,-0.65844 0.17921,-0.96451 0.12336,-0.3063 0.30723,-0.58444 0.54231,-0.81788 0.22809,-0.23949 0.50274,-0.42919 0.80764,-0.5572 0.30257,-0.12801 0.63075,-0.19155 0.96125,-0.1862 0.33283,-0.005 0.66101,0.0571 0.96824,0.18201 0.30722,0.12476 0.58419,0.31002 0.81927,0.54439 0.24206,0.23206 0.43291,0.51205 0.55859,0.82184 0.12802,0.30979 0.18853,0.64262 0.18155,0.97755 0.005,0.3284 -0.0582,0.65449 -0.18387,0.95753 -0.12801,0.30303 -0.31654,0.57605 -0.55627,0.80182 -0.23508,0.23461 -0.51205,0.41988 -0.81927,0.54463 -0.30723,0.12475 -0.63541,0.18667 -0.96824,0.182 -0.32818,0.006 -0.65403,-0.0558 -0.95892,-0.18084 -0.30491,-0.12475 -0.57955,-0.31049 -0.80997,-0.54579 z m 3.51683,22.84009 h -3.45865 v -17.85089 h 3.45865 z" fill="#5000b9" id="path40" style="stroke-width:2.32749"/>
  <path d="m 465.26691,133.10059 h -4.31284 v 14.69505 h -3.60527 v -14.69505 h -3.31202 v -3.15584 h 3.31202 v -3.00246 c -0.0465,-0.823 0.0791,-1.64646 0.36542,-2.41895 0.2886,-0.7725 0.73316,-1.47749 1.30572,-2.07077 0.55627,-0.54067 1.21262,-0.96404 1.93646,-1.24497 0.72153,-0.2807 1.49425,-0.41337 2.2693,-0.38963 1.06367,0 1.75958,0.12475 2.08078,0.37449 v 3.11046 c -0.49111,-0.16572 -1.00781,-0.24067 -1.52451,-0.22135 -0.72385,-0.0154 -1.42908,0.226 -1.99,0.68103 -0.57023,0.45991 -0.8379,1.24869 -0.8379,2.36123 v 2.8379 h 4.31284 z" fill="#5000b9" id="path42" style="stroke-width:2.32749"/>
  <path d="m 474.04387,155.25384 h -3.83338 l 4.46645,-9.42772 -7.697,-15.89278 h 4.01491 l 5.57667,12.32265 5.35786,-12.32265 h 3.75424 z" fill="#5000b9" id="path44" style="stroke-width:2.32749"/>
  <path d="m 98.418005,30.156313 c 0,0 -4.266748,-2.020724 -8.692697,-0.709418 -3.310849,0.976148 -6.940331,3.484946 -9.00551,8.695491 -3.982097,9.995158 -0.534625,27.425938 -1.882937,27.425938 -1.348314,0 -5.592253,-16.062916 -11.269691,-32.789864 C 61.8895,16.051605 56.980132,-1.3224033 48.11683,0.07955154 40.25458,1.3169038 42.695182,21.125898 45.772818,39.680389 c 2.787631,16.817952 6.013294,32.562934 4.170157,32.562934 -3.293859,0.0056 -14.102939,-46.480141 -25.179216,-44.714975 -11.076252,1.765166 3.19145,52.984768 0.193415,53.081359 -2.463249,0.07937 -8.504869,-31.178081 -17.4705804,-29.742021 -6.79254639,1.08973 -0.7395589,25.405448 -0.4607958,32.188209 0.068265,1.702789 0.5973261,4.89261 -1.9569741,4.89261 H 0 v 4.728056 h 8.30012 c 1.706653,-0.07937 3.054943,-0.732227 3.737594,-2.406621 2.304003,-5.675809 -3.7489754,-29.787174 -2.3324438,-29.963132 0.9727958,-0.119167 3.0720028,7.219864 6.0017968,15.518052 2.929794,8.298188 5.865266,16.902906 11.4291,16.902906 11.997728,0 -0.239033,-47.042229 2.13896,-47.042229 1.257308,0 4.687558,9.558289 8.459483,20.041755 4.613544,12.810486 10.240011,27.017464 17.032547,27.017464 8.106637,0 5.467034,-18.350369 2.958236,-35.934299 C 55.552219,41.59335 53.00362,27.295599 54.363106,27.295599 c 3.060644,0 14.614753,65.426348 28.490066,65.426348 6.951969,0 7.031569,-13.678872 7.031569,-28.424896 0,-10.358712 -0.864661,-19.797602 5.643225,-22.068065 3.094859,-1.078324 6.223704,0.834404 6.223704,0.834404 z" fill="#5000b9" id="path46" style="stroke-width:2.32749"/>
</svg>