<?xml version="1.0" encoding="iso-8859-1"?>
<!-- Generator: Adobe Illustrator 19.0.0, SVG Export Plug-In . SVG Version: 6.00 Build 0)  -->
<svg version="1.1" id="Layer_1" xmlns="http://www.w3.org/2000/svg" xmlns:xlink="http://www.w3.org/1999/xlink" x="0px" y="0px"
	 viewBox="0 0 512 512" style="enable-background:new 0 0 512 512;" xml:space="preserve">
<polygon style="fill:#F2B851;" points="256,118.016 0,57.92 0,393.984 256,454.08 512,393.984 512,57.92 "/>
<g>
	
		<rect x="300.144" y="335.727" transform="matrix(0.9735 -0.2287 0.2287 0.9735 -68.318 97.922)" style="fill:#FFFFFF;" width="176.385" height="16"/>
	
		<rect x="380.324" y="196.973" transform="matrix(0.2287 0.9735 -0.9735 0.2287 577.1227 -158.0839)" style="fill:#FFFFFF;" width="16" height="176.385"/>
	
		<rect x="380.393" y="138.578" transform="matrix(-0.2287 -0.9735 0.9735 -0.2287 256.4583 656.7317)" style="fill:#FFFFFF;" width="16" height="176.385"/>
	
		<rect x="380.293" y="80.086" transform="matrix(0.2287 0.9735 -0.9735 0.2287 463.3093 -248.209)" style="fill:#FFFFFF;" width="16" height="176.385"/>
	
		<rect x="35.446" y="335.682" transform="matrix(-0.9736 -0.2284 0.2284 -0.9736 165.5191 706.5187)" style="fill:#FFFFFF;" width="176.39" height="16.001"/>
	
		<rect x="35.503" y="277.231" transform="matrix(0.9736 0.2284 -0.2284 0.9736 68.4142 -20.7128)" style="fill:#FFFFFF;" width="176.39" height="16.001"/>
	
		<rect x="35.49" y="218.801" transform="matrix(0.9736 0.2284 -0.2284 0.9736 55.0688 -22.2542)" style="fill:#FFFFFF;" width="176.39" height="16.001"/>
	
		<rect x="35.512" y="160.303" transform="matrix(0.9736 0.2284 -0.2284 0.9736 41.7089 -23.8054)" style="fill:#FFFFFF;" width="176.39" height="16.001"/>
	<polygon style="fill:#FFFFFF;" points="248,452.224 256,454.08 264,452.224 264,116.096 256,118.016 248,116.096 	"/>
</g>
<g>
</g>
<g>
</g>
<g>
</g>
<g>
</g>
<g>
</g>
<g>
</g>
<g>
</g>
<g>
</g>
<g>
</g>
<g>
</g>
<g>
</g>
<g>
</g>
<g>
</g>
<g>
</g>
<g>
</g>
</svg>
