<?xml version="1.0" encoding="iso-8859-1"?>
<!-- Generator: Adobe Illustrator 19.0.0, SVG Export Plug-In . SVG Version: 6.00 Build 0)  -->
<svg version="1.1" id="Layer_1" xmlns="http://www.w3.org/2000/svg" xmlns:xlink="http://www.w3.org/1999/xlink" x="0px" y="0px"
	 viewBox="0 0 512 512" style="enable-background:new 0 0 512 512;" xml:space="preserve">
<path style="fill:#48AEE2;" d="M475.576,475.404H274.293v-78.583c0-10.105-8.193-18.298-18.298-18.298s-18.298,8.193-18.298,18.298
	v78.583H36.424c-10.105,0-18.298,8.193-18.298,18.298S26.319,512,36.424,512h439.152c10.105,0,18.298-8.193,18.298-18.298
	S485.681,475.404,475.576,475.404z"/>
<path style="fill:#3797D3;" d="M475.576,475.404H274.293v-78.583c0-10.105-8.193-18.298-18.298-18.298V512h219.58
	c10.105,0,18.298-8.193,18.298-18.298S485.681,475.404,475.576,475.404z"/>
<path style="fill:#FFD155;" d="M448.757,207.481H63.243c-24.878,0-45.117-20.24-45.117-45.117V45.117
	C18.126,20.239,38.365,0,63.243,0h385.514c24.878,0,45.117,20.239,45.117,45.117v117.247
	C493.874,187.242,473.635,207.481,448.757,207.481z"/>
<path style="fill:#FFBE00;" d="M448.757,0H255.996v207.481h192.761c24.878,0,45.117-20.24,45.117-45.117V45.117
	C493.874,20.239,473.635,0,448.757,0z"/>
<path style="fill:#FFE49C;" d="M285.481,122.039h-180.11c-10.105,0-18.298-8.193-18.298-18.298s8.193-18.298,18.298-18.298h180.11
	c10.105,0,18.298,8.193,18.298,18.298C303.779,113.847,295.587,122.039,285.481,122.039z"/>
<path style="fill:#FFBE00;" d="M448.757,415.118H63.243c-24.878,0-45.117-20.239-45.117-45.117V252.754
	c0-24.878,20.239-45.117,45.117-45.117h385.514c24.878,0,45.117,20.239,45.117,45.117v117.247
	C493.874,394.879,473.635,415.118,448.757,415.118z"/>
<path style="fill:#FFAF00;" d="M448.757,207.637H255.996v207.481h192.761c24.878,0,45.117-20.239,45.117-45.117V252.754
	C493.874,227.877,473.635,207.637,448.757,207.637z"/>
<path style="fill:#FFE49C;" d="M285.481,329.676h-180.11c-10.105,0-18.298-8.193-18.298-18.298s8.193-18.298,18.298-18.298h180.11
	c10.105,0,18.298,8.193,18.298,18.298S295.587,329.676,285.481,329.676z"/>
<g>
	<path style="fill:#FFD155;" d="M285.481,85.443h-29.485v36.596h29.485c10.105,0,18.298-8.193,18.298-18.298
		S295.587,85.443,285.481,85.443z"/>
	<path style="fill:#FFD155;" d="M379.552,149.117c-25.021,0-45.375-20.356-45.375-45.375s20.356-45.375,45.375-45.375
		c25.02,0,45.375,20.356,45.375,45.375S404.571,149.117,379.552,149.117z"/>
	<path style="fill:#FFD155;" d="M285.481,293.08h-29.485v36.596h29.485c10.105,0,18.298-8.193,18.298-18.298
		C303.779,301.273,295.587,293.08,285.481,293.08z"/>
	<path style="fill:#FFD155;" d="M379.552,356.754c-25.021,0-45.375-20.355-45.375-45.375c0-25.021,20.356-45.375,45.375-45.375
		c25.02,0,45.375,20.356,45.375,45.375C424.927,336.398,404.571,356.754,379.552,356.754z"/>
</g>
<g>
</g>
<g>
</g>
<g>
</g>
<g>
</g>
<g>
</g>
<g>
</g>
<g>
</g>
<g>
</g>
<g>
</g>
<g>
</g>
<g>
</g>
<g>
</g>
<g>
</g>
<g>
</g>
<g>
</g>
</svg>
