<?xml version="1.0" encoding="iso-8859-1"?>
<!-- Generator: Adobe Illustrator 19.0.0, SVG Export Plug-In . SVG Version: 6.00 Build 0)  -->
<svg version="1.1" id="Layer_1" xmlns="http://www.w3.org/2000/svg" xmlns:xlink="http://www.w3.org/1999/xlink" x="0px" y="0px"
	 viewBox="0 0 512 512" style="enable-background:new 0 0 512 512;" xml:space="preserve">
<g>
	<path style="fill:#7383BF;" d="M466.286,36.571v54.857c0,10.103-8.183,18.286-18.286,18.286H274.286
		c-10.103,0-18.286-8.183-18.286-18.286V36.571h-45.714v402.286c0,10.103-8.183,18.286-18.286,18.286H64
		c-10.103,0-18.286-8.183-18.286-18.286V36.571H27.429c-10.103,0-18.286,8.183-18.286,18.286v438.857
		c0,10.103,8.183,18.286,18.286,18.286h457.143c10.103,0,18.286-8.183,18.286-18.286V54.857c0-10.103-8.183-18.286-18.286-18.286
		H466.286z"/>
	<path style="fill:#262F49;" d="M192,457.143H64c-10.103,0-18.286-8.183-18.286-18.286V18.286C45.714,8.183,53.897,0,64,0h128
		c10.103,0,18.286,8.183,18.286,18.286v420.571C210.286,448.96,202.103,457.143,192,457.143"/>
	<path style="fill:#A4E869;" d="M448,109.714H274.286c-10.103,0-18.286-8.183-18.286-18.286V18.286C256,8.183,264.183,0,274.286,0
		H448c10.103,0,18.286,8.183,18.286,18.286v73.143C466.286,101.531,458.103,109.714,448,109.714"/>
	<g>
		<polygon style="fill:#434C6D;" points="256,192 301.714,192 301.714,146.286 256,146.286 		"/>
		<polygon style="fill:#434C6D;" points="338.286,192 384,192 384,146.286 338.286,146.286 		"/>
		<polygon style="fill:#434C6D;" points="420.571,192 466.286,192 466.286,146.286 420.571,146.286 		"/>
		<polygon style="fill:#434C6D;" points="256,274.286 301.714,274.286 301.714,228.571 256,228.571 		"/>
		<polygon style="fill:#434C6D;" points="338.286,274.286 384,274.286 384,228.571 338.286,228.571 		"/>
		<polygon style="fill:#434C6D;" points="420.571,274.286 466.286,274.286 466.286,228.571 420.571,228.571 		"/>
		<polygon style="fill:#434C6D;" points="256,356.571 301.714,356.571 301.714,310.857 256,310.857 		"/>
		<polygon style="fill:#434C6D;" points="338.286,356.571 384,356.571 384,310.857 338.286,310.857 		"/>
		<polygon style="fill:#434C6D;" points="420.571,356.571 466.286,356.571 466.286,310.857 420.571,310.857 		"/>
		<polygon style="fill:#434C6D;" points="256,438.857 301.714,438.857 301.714,393.143 256,393.143 		"/>
		<polygon style="fill:#434C6D;" points="338.286,438.857 384,438.857 384,393.143 338.286,393.143 		"/>
		<polygon style="fill:#434C6D;" points="420.571,438.857 466.286,438.857 466.286,393.143 420.571,393.143 		"/>
	</g>
	<g>
		<path style="fill:#649930;" d="M320,45.714h-27.429c-5.056,0-9.143-4.087-9.143-9.143s4.087-9.143,9.143-9.143H320
			c5.056,0,9.143,4.087,9.143,9.143S325.056,45.714,320,45.714"/>
		<path style="fill:#649930;" d="M429.714,45.714h-73.143c-5.056,0-9.143-4.087-9.143-9.143s4.087-9.143,9.143-9.143h73.143
			c5.056,0,9.143,4.087,9.143,9.143S434.77,45.714,429.714,45.714"/>
		<path style="fill:#649930;" d="M365.714,82.286h-73.143c-5.056,0-9.143-4.087-9.143-9.143c0-5.056,4.087-9.143,9.143-9.143h73.143
			c5.056,0,9.143,4.087,9.143,9.143C374.857,78.199,370.77,82.286,365.714,82.286"/>
		<path style="fill:#649930;" d="M429.714,82.286h-27.429c-5.056,0-9.143-4.087-9.143-9.143c0-5.056,4.087-9.143,9.143-9.143h27.429
			c5.056,0,9.143,4.087,9.143,9.143C438.857,78.199,434.77,82.286,429.714,82.286"/>
	</g>
	<g>
		<path style="fill:#434C6D;" d="M45.714,36.571H27.429c-10.103,0-18.286,8.183-18.286,18.286v27.429h36.571V36.571z"/>
		<polygon style="fill:#434C6D;" points="210.286,82.286 256,82.286 256,36.571 210.286,36.571 		"/>
		<path style="fill:#434C6D;" d="M484.571,36.571h-18.286v45.714h36.571V54.857C502.857,44.754,494.674,36.571,484.571,36.571"/>
	</g>
</g>
<g>
</g>
<g>
</g>
<g>
</g>
<g>
</g>
<g>
</g>
<g>
</g>
<g>
</g>
<g>
</g>
<g>
</g>
<g>
</g>
<g>
</g>
<g>
</g>
<g>
</g>
<g>
</g>
<g>
</g>
</svg>
