<?xml version="1.0" encoding="UTF-8" standalone="no"?>
<svg
   xmlns:dc="http://purl.org/dc/elements/1.1/"
   xmlns:cc="http://creativecommons.org/ns#"
   xmlns:rdf="http://www.w3.org/1999/02/22-rdf-syntax-ns#"
   xmlns:svg="http://www.w3.org/2000/svg"
   xmlns="http://www.w3.org/2000/svg"
   xmlns:sodipodi="http://sodipodi.sourceforge.net/DTD/sodipodi-0.dtd"
   xmlns:inkscape="http://www.inkscape.org/namespaces/inkscape"
   width="300.1pt"
   height="365pt"
   viewBox="0 0 300.1 365"
   version="1.1"
   id="svg50"
   sodipodi:docname="253766.svg"
   inkscape:version="0.92.4 (5da689c313, 2019-01-14)">
  <metadata
     id="metadata54">
    <rdf:RDF>
      <cc:Work
         rdf:about="">
        <dc:format>image/svg+xml</dc:format>
        <dc:type
           rdf:resource="http://purl.org/dc/dcmitype/StillImage" />
      </cc:Work>
    </rdf:RDF>
  </metadata>
  <sodipodi:namedview
     pagecolor="#ffffff"
     bordercolor="#666666"
     borderopacity="1"
     objecttolerance="10"
     gridtolerance="10"
     guidetolerance="10"
     inkscape:pageopacity="0"
     inkscape:pageshadow="2"
     inkscape:window-width="1920"
     inkscape:window-height="1017"
     id="namedview52"
     showgrid="false"
     inkscape:zoom="0.48493151"
     inkscape:cx="200.06667"
     inkscape:cy="243.33333"
     inkscape:window-x="-8"
     inkscape:window-y="-8"
     inkscape:window-maximized="1"
     inkscape:current-layer="surface1" />
  <defs
     id="defs5">
    <clipPath
       id="clip1">
      <path
         d="M 277 282 L 300.101563 282 L 300.101563 318 L 277 318 Z M 277 282 "
         id="path2" />
    </clipPath>
  </defs>
  <g
     id="surface1">
    <path
       style="fill:#000000;fill-opacity:1;fill-rule:nonzero;stroke:none"
       d="m 251.51953,145.09878 c -13.74609,0 -28.10937,-4.5625 -28.10937,-4.5625 0,0 -20.47266,-6.34375 -35.4336,-6.34375 -22.51953,0 -37.92578,18.57422 -37.92578,18.57422 v -15.07031 c 0,0 14.76953,-17.46094 37.875,-17.46094 8.39063,0 19.12109,0.45703 36.91797,5.83203 17.79687,5.38282 27.06641,4.71485 27.06641,4.71485 20.17187,0 39.84375,-6.91016 45.23437,-8.96875 v -20.66407 c -5.75391,1.8125 -27.45312,8.28907 -45.625,8.28907 -13.74609,0 -28.10937,-4.5625 -28.10937,-4.5625 0,0 -20.47266,-6.339847 -35.42969,-6.339847 -22.52344,0 -37.92578,18.570317 -37.92578,18.570317 v -15.07032 c 0,0 14.76562,-17.457028 37.87109,-17.457028 8.39453,0 19.12109,0.445312 36.91797,5.832031 17.80078,5.378906 27.07031,4.714844 27.07031,4.714844 20.16797,0 39.83985,-6.917969 45.23047,-8.972656 V 63.325346 c 0,0 -24.58594,10.105468 -45.96875,10.105468 -21.38672,0 -34.42187,-10.214843 -58.36719,-10.214843 -23.9414,0 -42.7539,16.171875 -42.7539,16.171875 0,0 -18.82422,-16.171875 -42.76172,-16.171875 -23.945314,0 -36.984376,10.214843 -58.359376,10.214843 -21.375,0 -45.972656,-10.105468 -45.972656,-10.105468 V 300.3605 c 0,0 22.230468,9.28516 44.46875,9.28516 17.953125,0 41.210937,-13.07422 57.421872,-12.02344 14.44532,0.94531 22.96094,7.55469 29.4375,15.85156 1.44141,2.59375 4.3711,2.73438 4.3711,2.73438 h 22.80078 c 0,0 2.89062,-0.14063 4.37109,-2.73438 6.47656,-8.29687 14.98828,-14.90625 29.42969,-15.85156 16.21094,-1.05078 36.86328,11.78906 57.42969,12.02344 22.86328,0.26172 44.45703,-9.28516 44.45703,-9.28516 v -20.92578 c -5.75,1.82031 -27.44922,8.28516 -45.6211,8.28516 -13.75,0 -28.11328,-4.55469 -28.11328,-4.55469 0,0 -20.46875,-6.34766 -35.42969,-6.34766 -22.51953,0 -37.92578,18.57813 -37.92578,18.57813 v -15.07031 c 0,0 14.76563,-17.46875 37.875,-17.46875 8.39063,0 19.1211,0.45703 36.91407,5.83593 17.80078,5.38282 27.07031,4.71875 27.07031,4.71875 20.17187,0 39.83984,-6.91797 45.23047,-8.97265 v -20.67578 c -5.75,1.82812 -27.44922,8.30078 -45.6211,8.30078 -13.74609,0 -28.11328,-4.5586 -28.11328,-4.5586 0,0 -20.46875,-6.34765 -35.42969,-6.34765 -22.51953,0 -37.92578,18.57031 -37.92578,18.57031 v -15.07031 c 0,0 14.76563,-17.45313 37.875,-17.45313 8.39063,0 19.1211,0.45313 36.91407,5.83594 17.80078,5.37109 27.07031,4.70312 27.07031,4.70312 20.17187,0 39.83984,-6.91015 45.23047,-8.96484 V 208.1105 c -5.75,1.82031 -27.44922,8.28906 -45.6211,8.28906 -13.74609,0 -28.11328,-4.55078 -28.11328,-4.55078 0,0 -20.46875,-6.35156 -35.42969,-6.35156 -22.51953,0 -37.92578,18.58203 -37.92578,18.58203 v -15.07812 c 0,0 14.76563,-17.45313 37.875,-17.45313 8.39063,0 19.1211,0.45313 36.91797,5.83203 17.79688,5.375 27.06641,4.71094 27.06641,4.71094 20.17187,0 39.84375,-6.92187 45.23437,-8.96875 v -20.66406 c -5.7539,1.8164 -27.45312,8.29297 -45.625,8.29297 -13.74609,0 -28.10937,-4.56641 -28.10937,-4.56641 0,0 -20.47266,-6.34375 -35.4336,-6.34375 -22.51953,0 -37.92578,18.57813 -37.92578,18.57813 v -15.07813 c 0,0 14.76953,-17.45703 37.875,-17.45703 8.39063,0 19.1211,0.45703 36.91797,5.83594 17.79688,5.3789 27.06641,4.71875 27.06641,4.71875 20.17187,0 39.84375,-6.92578 45.23437,-8.97266 v -20.66406 c -5.7539,1.82031 -27.45312,8.29687 -45.625,8.29687"
       id="path43"
       inkscape:connector-curvature="0" />
    <path
       style="fill:#026eab;fill-opacity:1;fill-rule:nonzero;stroke:none"
       d="m 253.01953,145.09878 c -13.74609,0 -28.10937,-4.5625 -28.10937,-4.5625 0,0 -20.47266,-6.34375 -35.4336,-6.34375 -22.51953,0 -37.92578,18.57422 -37.92578,18.57422 v -15.07031 c 0,0 14.76953,-17.46094 37.875,-17.46094 8.39063,0 19.12109,0.45703 36.91797,5.83203 17.79687,5.38282 27.06641,4.71485 27.06641,4.71485 20.17187,0 39.84375,-6.91016 45.23437,-8.96875 v -20.66407 c -5.75391,1.8125 -27.45312,8.28907 -45.625,8.28907 -13.74609,0 -28.10937,-4.5625 -28.10937,-4.5625 0,0 -20.47266,-6.339847 -35.42969,-6.339847 -22.52344,0 -37.92578,18.570317 -37.92578,18.570317 v -15.07032 c 0,0 14.76562,-17.457028 37.87109,-17.457028 8.39453,0 19.12109,0.445312 36.91797,5.832031 17.80078,5.378906 27.07031,4.714844 27.07031,4.714844 20.16797,0 39.83985,-6.917969 45.23047,-8.972656 V 63.325346 c 0,0 -24.58594,10.105468 -45.96875,10.105468 -21.38672,0 -34.42187,-10.214843 -58.36719,-10.214843 -23.9414,0 -42.7539,16.171875 -42.7539,16.171875 0,0 -18.82422,-16.171875 -42.76172,-16.171875 -23.945314,0 -36.984376,10.214843 -58.359376,10.214843 -21.375,0 -45.972656,-10.105468 -45.972656,-10.105468 V 300.3605 c 0,0 22.230468,9.28516 44.46875,9.28516 17.953125,0 41.210937,-13.07422 57.421872,-12.02344 14.44532,0.94531 22.96094,7.55469 29.4375,15.85156 1.44141,2.59375 4.3711,2.73438 4.3711,2.73438 h 22.80078 c 0,0 2.89062,-0.14063 4.37109,-2.73438 6.47656,-8.29687 14.98828,-14.90625 29.42969,-15.85156 16.21094,-1.05078 36.86328,11.78906 57.42969,12.02344 22.86328,0.26172 44.45703,-9.28516 44.45703,-9.28516 v -20.92578 c -5.75,1.82031 -27.44922,8.28516 -45.6211,8.28516 -13.75,0 -28.11328,-4.55469 -28.11328,-4.55469 0,0 -20.46875,-6.34766 -35.42969,-6.34766 -22.51953,0 -37.92578,18.57813 -37.92578,18.57813 v -15.07031 c 0,0 14.76563,-17.46875 37.875,-17.46875 8.39063,0 19.1211,0.45703 36.91407,5.83593 17.80078,5.38282 27.07031,4.71875 27.07031,4.71875 20.17187,0 39.83984,-6.91797 45.23047,-8.97265 v -20.67578 c -5.75,1.82812 -27.44922,8.30078 -45.6211,8.30078 -13.74609,0 -28.11328,-4.5586 -28.11328,-4.5586 0,0 -20.46875,-6.34765 -35.42969,-6.34765 -22.51953,0 -37.92578,18.57031 -37.92578,18.57031 v -15.07031 c 0,0 14.76563,-17.45313 37.875,-17.45313 8.39063,0 19.1211,0.45313 36.91407,5.83594 17.80078,5.37109 27.07031,4.70312 27.07031,4.70312 20.17187,0 39.83984,-6.91015 45.23047,-8.96484 V 208.1105 c -5.75,1.82031 -27.44922,8.28906 -45.6211,8.28906 -13.74609,0 -28.11328,-4.55078 -28.11328,-4.55078 0,0 -20.46875,-6.35156 -35.42969,-6.35156 -22.51953,0 -37.92578,18.58203 -37.92578,18.58203 v -15.07812 c 0,0 14.76563,-17.45313 37.875,-17.45313 8.39063,0 19.1211,0.45313 36.91797,5.83203 17.79688,5.375 27.06641,4.71094 27.06641,4.71094 20.17187,0 39.84375,-6.92187 45.23437,-8.96875 v -20.66406 c -5.7539,1.8164 -27.45312,8.29297 -45.625,8.29297 -13.74609,0 -28.10937,-4.56641 -28.10937,-4.56641 0,0 -20.47266,-6.34375 -35.4336,-6.34375 -22.51953,0 -37.92578,18.57813 -37.92578,18.57813 v -15.07813 c 0,0 14.76953,-17.45703 37.875,-17.45703 8.39063,0 19.1211,0.45703 36.91797,5.83594 17.79688,5.3789 27.06641,4.71875 27.06641,4.71875 20.17187,0 39.84375,-6.92578 45.23437,-8.97266 v -20.66406 c -5.7539,1.82031 -27.45312,8.29687 -45.625,8.29687 h -0.008"
       id="path45"
       inkscape:connector-curvature="0" />
    <path
       style="fill:#ffffff;fill-opacity:1;fill-rule:nonzero;stroke:none"
       d="m 251.51953,145.09878 v -0.98047 c -6.76562,0.004 -13.73828,-1.125 -19.00391,-2.25781 -2.63281,-0.5664 -4.84375,-1.13281 -6.39062,-1.55469 -0.77344,-0.21093 -1.37891,-0.39062 -1.79297,-0.51171 -0.20703,-0.0625 -0.36328,-0.10938 -0.47266,-0.14454 -0.0508,-0.0156 -0.0898,-0.0273 -0.11718,-0.0352 l -0.0391,-0.0117 h -0.004 c -0.0156,-0.008 -5.15625,-1.59766 -12.17969,-3.19141 -7.02734,-1.59375 -15.92578,-3.19531 -23.54297,-3.19922 -5.76562,0 -11.07031,1.19141 -15.77344,2.96485 -7.05468,2.66797 -12.76171,6.64844 -16.71875,9.96484 -3.95703,3.31641 -6.16015,5.96875 -6.1875,6 l 0.75391,0.625 h 0.98047 v -15.07031 h -0.98047 l 0.74609,0.63281 0.008,-0.008 c 0.18359,-0.21875 3.91015,-4.51953 10.36718,-8.74219 6.45704,-4.22656 15.62891,-8.36719 26.75391,-8.36328 4.17578,0 8.90234,0.11328 14.80469,0.89063 5.89844,0.77734 12.97656,2.22265 21.82812,4.89843 14.35938,4.33985 23.24219,4.78516 26.26172,4.78516 0.75,0 1.13672,-0.0273 1.16016,-0.0312 l -0.0703,-0.97656 v 0.98047 c 10.19921,0 20.22656,-1.7461 28.39062,-3.74219 8.16797,-2 14.46484,-4.25391 17.19141,-5.29297 l 0.6289,-0.23828 V 99.813627 l -1.27343,0.402343 c -2.85547,0.90234 -9.69532,2.96484 -18.06641,4.80078 -8.375,1.83985 -18.28906,3.44531 -27.26172,3.44531 -6.76562,0 -13.73828,-1.1289 -19.00391,-2.26171 -2.63281,-0.56641 -4.83984,-1.13282 -6.38671,-1.55469 -0.77344,-0.21094 -1.38282,-0.38672 -1.79688,-0.51172 -0.20703,-0.0586 -0.36328,-0.10938 -0.46875,-0.14063 -0.0547,-0.0156 -0.0937,-0.0273 -0.12109,-0.0351 l -0.0391,-0.0156 h -0.004 c -0.0156,-0.004 -5.15625,-1.59765 -12.17969,-3.1914 -7.02734,-1.589847 -15.92578,-3.191409 -23.53906,-3.195316 -5.76563,0 -11.07031,1.191407 -15.77344,2.964846 -7.05469,2.66797 -12.76562,6.64844 -16.72266,9.96094 -3.95312,3.3164 -6.15625,5.96875 -6.18359,6 l 0.75391,0.625 h 0.97656 v -15.07032 h -0.97656 l 0.74609,0.63282 0.008,-0.008 c 0.1836,-0.21875 3.90625,-4.519528 10.36328,-8.738278 6.46094,-4.226563 15.62891,-8.367188 26.75391,-8.367188 4.17969,0 8.90234,0.113282 14.80469,0.890625 5.90234,0.777344 12.97656,2.222657 21.82812,4.898438 14.3711,4.34375 23.26172,4.785156 26.27344,4.785156 0.74219,0 1.12891,-0.02734 1.14844,-0.02734 l -0.0664,-0.976562 v 0.976562 c 10.19531,0 20.22266,-1.742187 28.39063,-3.742187 8.16406,-2 14.46484,-4.253906 17.1875,-5.292969 l 0.6289,-0.242187 V 61.864408 l -1.34765,0.554688 c 0,0 -0.0234,0.0078 -0.0664,0.02734 -0.71094,0.289063 -6.97656,2.796875 -15.62891,5.226563 -8.64843,2.433594 -19.6914,4.78125 -29.90234,4.78125 -10.53125,0 -19.01953,-2.511719 -27.95312,-5.070313 -8.92969,-2.554687 -18.30079,-5.148437 -30.41407,-5.148437 -12.19531,0.0039 -23.02343,4.109375 -30.80859,8.199219 -7.78906,4.09375 -12.54297,8.179687 -12.58203,8.210937 l 0.63672,0.742188 0.63672,-0.742188 c -0.0391,-0.03125 -4.79688,-4.117187 -12.58594,-8.210937 -7.78906,-4.089844 -18.62109,-8.195313 -30.8125,-8.199219 -12.113282,0 -21.484376,2.59375 -30.414064,5.148437 -8.933593,2.558594 -17.417968,5.070313 -27.945312,5.070313 C 38.398438,72.458158 26.972656,69.950346 18.203125,67.438627 13.816406,66.180814 10.09375,64.926908 7.46875,63.981596 6.15625,63.512846 5.121094,63.122221 4.414063,62.844877 4.058594,62.708158 3.785156,62.602689 3.605469,62.528471 3.511719,62.493314 3.445313,62.465971 3.398438,62.446439 3.351563,62.426908 3.332031,62.419096 3.332031,62.419096 L 1.980469,61.864408 V 301.01285 l 0.601562,0.25 c 0.027344,0.0117 5.617188,2.34765 14.011719,4.68359 8.390625,2.33203 19.582031,4.67578 30.835938,4.67578 4.429687,0 9.117187,-0.76953 13.917968,-1.91406 7.199219,-1.71485 14.652344,-4.26953 21.789063,-6.38281 7.132812,-2.1211 13.953125,-3.78907 19.804691,-3.78516 0.625,0 1.24218,0.0195 1.84375,0.0586 7.08984,0.46485 12.66015,2.3086 17.27343,5.03516 4.60938,2.72656 8.26953,6.35937 11.45703,10.44141 l 0.77344,-0.60157 -0.85547,0.47266 c 0.42578,0.76953 0.97266,1.36719 1.53907,1.81641 0.85156,0.67187 1.74609,1.02343 2.42968,1.20703 0.6836,0.1875 1.16016,0.21093 1.21485,0.21484 h 22.89062 c 0.0703,-0.004 0.89063,-0.0469 1.94531,-0.46094 0.52344,-0.20703 1.10938,-0.51172 1.67969,-0.96093 0.56641,-0.44532 1.11328,-1.03907 1.54688,-1.80469 l -0.84766,-0.48438 0.76953,0.60157 c 3.19141,-4.08204 6.84766,-7.71485 11.45703,-10.44141 4.60938,-2.72656 10.17969,-4.57031 17.26563,-5.03516 0.61328,-0.0391 1.23828,-0.0586 1.86719,-0.0586 3.85546,0 8,0.72266 12.36328,1.82812 6.54297,1.65235 13.55468,4.16407 20.8125,6.29297 7.2539,2.12891 14.76172,3.875 22.3125,3.96094 0.3164,0.004 0.6289,0.008 0.9414,0.008 11.39063,-0.004 22.35157,-2.34375 30.47657,-4.68359 8.125,-2.33984 13.41796,-4.67578 13.44921,-4.69141 l 0.58204,-0.25781 v -22.89844 l -1.27344,0.40235 c -2.85938,0.90625 -9.69531,2.96875 -18.07031,4.80468 -8.3711,1.83594 -18.28907,3.4375 -27.25782,3.4375 -6.76562,0 -13.74218,-1.125 -19.00781,-2.25781 -2.63281,-0.5625 -4.83984,-1.1289 -6.38672,-1.55078 -0.77344,-0.21094 -1.38281,-0.38672 -1.79297,-0.51172 -0.20703,-0.0625 -0.36718,-0.10937 -0.47265,-0.14062 -0.0508,-0.0156 -0.0937,-0.0274 -0.11719,-0.0352 l -0.0391,-0.0156 h -0.008 c -0.0156,-0.004 -5.15234,-1.59766 -12.17578,-3.19532 -7.02734,-1.59375 -15.92968,-3.19531 -23.54297,-3.19531 -5.76562,0 -11.07031,1.1875 -15.77343,2.96484 -7.05469,2.66407 -12.76563,6.64844 -16.71875,9.96094 -3.95703,3.31641 -6.16016,5.96875 -6.1875,6.00391 l 0.7539,0.625 h 0.97657 v -15.07031 h -0.97657 l 0.7461,0.6289 0.008,-0.008 c 0.18359,-0.21484 3.90625,-4.51563 10.36328,-8.74219 6.46094,-4.22656 15.63281,-8.36719 26.75781,-8.36719 4.17578,0 8.90235,0.11329 14.80078,0.89063 5.90235,0.78125 12.97657,2.22656 21.83204,4.90234 14.35546,4.34375 23.24218,4.78516 26.26171,4.78516 0.7461,0 1.13672,-0.0273 1.16016,-0.0273 l -0.0703,-0.97657 v 0.97657 c 10.19531,0 20.22656,-1.74219 28.39062,-3.74219 8.16407,-2 14.46485,-4.25391 17.1875,-5.29297 l 0.63282,-0.24219 v -22.68359 l -1.27735,0.40625 c -2.85156,0.90625 -9.6914,2.97265 -18.0664,4.80859 -8.3711,1.83985 -18.28907,3.44531 -27.25782,3.44531 -6.76562,0 -13.73828,-1.1289 -19.0039,-2.25781 -2.63672,-0.5664 -4.84375,-1.13281 -6.39063,-1.55859 -0.77344,-0.21094 -1.3789,-0.38672 -1.79297,-0.50781 -0.20703,-0.0625 -0.36718,-0.10938 -0.47265,-0.14454 -0.0508,-0.0156 -0.0898,-0.0273 -0.11719,-0.0352 l -0.0391,-0.0117 -0.004,-0.004 c -0.0195,-0.004 -5.15625,-1.59765 -12.17969,-3.1914 -7.02734,-1.59375 -15.92968,-3.19532 -23.54297,-3.19922 -5.76562,0 -11.07031,1.1914 -15.77343,2.96484 -7.05469,2.66406 -12.76563,6.64453 -16.71875,9.96094 -3.95703,3.3125 -6.16016,5.96484 -6.1875,6 l 0.7539,0.625 h 0.97657 v -15.07031 h -0.97657 l 0.7461,0.63281 0.008,-0.008 c 0.18359,-0.21875 3.90625,-4.51563 10.36328,-8.73828 6.46094,-4.22266 15.63281,-8.36329 26.75781,-8.36329 4.17578,0 8.90235,0.11329 14.80469,0.89454 5.89844,0.77734 12.97656,2.22265 21.82813,4.89843 14.34765,4.33203 23.23046,4.77344 26.25781,4.77344 0.75,0 1.14062,-0.0273 1.16406,-0.0273 l -0.0703,-0.97657 v 0.98047 c 10.19531,-0.004 20.22656,-1.74609 28.39062,-3.74218 8.16407,-1.9961 14.46485,-4.25 17.19141,-5.28907 l 0.62891,-0.23828 v -22.67969 l -1.27344,0.40235 c -2.85547,0.90625 -9.69531,2.96875 -18.07031,4.80469 -8.3711,1.83593 -18.28907,3.4414 -27.25782,3.4414 -6.76562,0 -13.73828,-1.125 -19.0039,-2.2539 -2.63672,-0.56641 -4.84375,-1.12891 -6.39063,-1.55079 -0.77344,-0.21484 -1.3789,-0.39062 -1.79297,-0.51171 -0.20703,-0.0586 -0.36718,-0.10938 -0.47265,-0.14063 -0.0508,-0.0156 -0.0898,-0.0273 -0.11719,-0.0391 l -0.0391,-0.008 -0.004,-0.004 c -0.0156,-0.004 -5.15625,-1.59766 -12.17969,-3.19531 -7.02734,-1.59375 -15.92578,-3.19922 -23.54297,-3.20313 -5.76562,0 -11.07031,1.19141 -15.77343,2.96875 -7.05469,2.66406 -12.76172,6.64844 -16.71875,9.96485 -3.95703,3.3164 -6.16016,5.96875 -6.1875,6.0039 l 0.7539,0.625 h 0.97657 v -15.07812 h -0.97657 l 0.7461,0.6289 0.008,-0.008 c 0.18359,-0.21484 3.90625,-4.51562 10.36328,-8.73437 6.46094,-4.22657 15.63281,-8.36329 26.75781,-8.36329 4.17578,0 8.90235,0.11329 14.80469,0.89454 5.89844,0.77734 12.97656,2.22265 21.82813,4.89843 14.35546,4.33594 23.24218,4.77735 26.26171,4.77735 0.75,0 1.13672,-0.0273 1.16016,-0.0273 l -0.0703,-0.97656 v 0.97656 c 10.19922,0 20.22656,-1.74609 28.39062,-3.74218 8.16797,-2 14.46485,-4.25391 17.1875,-5.28907 l 0.63282,-0.23828 v -22.67578 l -1.27344,0.40234 c -2.85547,0.90235 -9.69531,2.96875 -18.07031,4.80469 -8.3711,1.83985 -18.28516,3.44531 -27.25782,3.44531 -6.76562,0 -13.73828,-1.1289 -19.0039,-2.26171 -2.63282,-0.56641 -4.84375,-1.13282 -6.38672,-1.5586 -0.77735,-0.21094 -1.38281,-0.39062 -1.79688,-0.51172 -0.20703,-0.0625 -0.36328,-0.10937 -0.46875,-0.14062 -0.0547,-0.0156 -0.0937,-0.0312 -0.12109,-0.0391 l -0.0352,-0.0117 h -0.008 c -0.0156,-0.008 -5.15625,-1.59766 -12.17969,-3.19141 -7.02734,-1.59375 -15.92578,-3.19531 -23.54297,-3.19922 -5.76562,0 -11.07031,1.19141 -15.76953,2.96875 -7.05859,2.66406 -12.76562,6.64844 -16.72265,9.96094 -3.95703,3.31641 -6.15625,5.97266 -6.1875,6.00391 l 0.7539,0.625 h 0.98047 v -15.07813 h -0.98047 l 0.7461,0.63281 0.008,-0.008 c 0.18359,-0.21484 3.91016,-4.51562 10.36719,-8.73828 6.45703,-4.22656 15.6289,-8.36719 26.7539,-8.36328 4.17578,0 8.90235,0.11328 14.80469,0.89062 5.89844,0.78125 12.97656,2.22657 21.82813,4.90235 14.38671,4.34765 23.28125,4.78515 26.28125,4.78515 0.73828,0 1.11718,-0.0234 1.14062,-0.0273 l -0.0703,-0.97656 v 0.98047 c 10.19922,0 20.22656,-1.7461 28.39062,-3.7461 8.16797,-2 14.46875,-4.25781 17.19141,-5.28906 l 0.62891,-0.24219 v -22.67578 l -1.27344,0.40234 c -2.85938,0.90235 -9.69531,2.96875 -18.07031,4.8086 -8.3711,1.83984 -18.28516,3.44531 -27.25782,3.44531 v 0.97656 l 0.0625,-0.97656 h -0.004 l -0.0352,-0.004 h -0.0312 v 0.98047 l -0.0664,0.97657 h 0.008 l 0.0312,0.004 h 0.0352 c 9.19922,-0.004 19.21875,-1.63672 27.67969,-3.49219 8.45313,-1.85546 15.34375,-3.9375 18.23828,-4.85546 l -0.29297,-0.92969 h -0.98047 v 20.66406 h 0.98047 l -0.34765,-0.91406 c -2.66797,1.01172 -8.89844,3.24609 -16.96094,5.21875 -8.05859,1.97656 -17.94922,3.6914 -27.92578,3.6914 h -0.0352 l -0.0312,0.004 h -0.008 c -0.0625,0.004 -0.39453,0.0195 -0.99609,0.0195 -2.8086,0 -11.50391,-0.41015 -25.71485,-4.70312 -8.9414,-2.70313 -16.1289,-4.17578 -22.14062,-4.96875 -6.00782,-0.79297 -10.84375,-0.91016 -15.0586,-0.91016 -11.80468,0.004 -21.45703,4.45703 -28.14453,8.89453 -6.6875,4.4375 -10.4375,8.86328 -10.47656,8.91016 l -0.23438,0.27344 v 18.15234 l 1.73438,-2.08984 0.008,-0.008 c 0.19531,-0.23828 4.08203,-4.82031 10.625,-9.3164 6.54688,-4.50391 15.72656,-8.90235 26.53906,-8.90235 7.34766,0 16.16407,1.57032 23.10938,3.14844 3.47656,0.78906 6.48828,1.57813 8.62891,2.17188 1.07421,0.29296 1.92578,0.54296 2.50781,0.71484 0.29297,0.0859 0.51562,0.15234 0.66797,0.19922 0.15234,0.043 0.23047,0.0664 0.23047,0.0664 h -0.008 c 0.0195,0.008 3.64063,1.15625 8.98828,2.3086 5.35547,1.14844 12.4375,2.30469 19.41797,2.30469 9.19922,-0.004 19.22266,-1.63282 27.67969,-3.48829 8.45703,-1.85546 15.34375,-3.9375 18.23828,-4.85156 l -0.29297,-0.93359 h -0.98047 v 20.66406 h 0.98047 l -0.34765,-0.91406 c -2.66797,1.01172 -8.89844,3.24219 -16.96094,5.21484 -8.05859,1.97266 -17.95313,3.6875 -27.92578,3.6875 h -0.0352 l -0.0352,0.004 h -0.008 c -0.0586,0.004 -0.39843,0.0234 -1.01172,0.0234 -2.83203,0 -11.51953,-0.41407 -25.69531,-4.69532 -8.9414,-2.69922 -16.1289,-4.17187 -22.14062,-4.96484 -6.00782,-0.79688 -10.84375,-0.91016 -15.0586,-0.91016 -11.80468,0 -21.45703,4.45703 -28.14453,8.89063 -6.6875,4.43359 -10.4375,8.85937 -10.47656,8.91015 l -0.23438,0.27344 v 18.14844 l 1.73438,-2.08594 0.008,-0.0117 c 0.19531,-0.23437 4.08203,-4.8164 10.625,-9.3164 6.54688,-4.5 15.72656,-8.90235 26.53906,-8.89844 7.34766,-0.004 16.16407,1.57031 23.10938,3.15234 3.47656,0.78907 6.48828,1.57813 8.62891,2.17188 1.07031,0.29687 1.92187,0.54297 2.50781,0.71484 0.29297,0.0859 0.51562,0.15235 0.66797,0.19922 0.15234,0.0469 0.22656,0.0703 0.22656,0.0703 l -0.004,-0.004 c 0.0195,0.008 3.64063,1.15234 8.99219,2.30078 5.35156,1.14453 12.43359,2.29687 19.41406,2.29687 9.19922,0 19.21875,-1.63281 27.67969,-3.48437 8.45313,-1.85547 15.34375,-3.9336 18.23828,-4.85156 l -0.29687,-0.9336 h -0.97657 v 20.66797 h 0.97657 l -0.34766,-0.91406 c -2.66406,1.01562 -8.89453,3.24609 -16.95703,5.21484 -8.05859,1.97266 -17.95313,3.6875 -27.92578,3.6836 h -0.0352 l -0.0352,0.004 h -0.008 c -0.0625,0.004 -0.40234,0.0234 -1.01562,0.0234 -2.83594,0 -11.52344,-0.41406 -25.69141,-4.6875 -8.9414,-2.70703 -16.1289,-4.17578 -22.14062,-4.96875 -6.01172,-0.79297 -10.84766,-0.91016 -15.0586,-0.91016 -11.80468,0.004 -21.45703,4.45703 -28.14453,8.89063 -6.6875,4.4375 -10.4375,8.86328 -10.47656,8.91015 l -0.23438,0.27344 v 18.14063 l 1.73438,-2.08594 0.008,-0.008 c 0.19531,-0.23828 4.08203,-4.82032 10.625,-9.31641 6.54688,-4.5 15.72656,-8.89453 26.53906,-8.89453 7.34766,0 16.16016,1.57031 23.10938,3.15234 3.47656,0.78907 6.48828,1.57813 8.62891,2.16797 1.07031,0.29688 1.92187,0.54297 2.50781,0.71485 0.29297,0.0859 0.51562,0.15625 0.66797,0.19921 0.15234,0.0469 0.22656,0.0703 0.22656,0.0703 l -0.004,-0.004 c 0.0195,0.008 3.63672,1.15625 8.98828,2.30469 5.35547,1.14844 12.4375,2.30078 19.41797,2.30469 9.19922,-0.004 19.21875,-1.63282 27.67969,-3.48829 8.45313,-1.85546 15.34375,-3.9375 18.23828,-4.85937 l -0.29687,-0.93359 h -0.97657 v 20.67578 h 0.97657 l -0.34766,-0.91407 c -2.66797,1.01563 -8.89844,3.2461 -16.95703,5.21875 -8.0625,1.97657 -17.95313,3.6875 -27.92578,3.6875 h -0.0352 l -0.0352,0.004 h -0.008 c -0.0586,0.004 -0.39843,0.0234 -1.01172,0.0234 -2.82812,0 -11.51562,-0.41406 -25.69531,-4.69922 -8.9414,-2.70313 -16.1289,-4.17578 -22.14062,-4.96875 -6.01172,-0.79688 -10.84766,-0.91016 -15.0586,-0.91016 -11.80859,0 -21.45703,4.45703 -28.14453,8.89453 -6.6914,4.44141 -10.4375,8.8711 -10.48047,8.91797 l -0.23047,0.27344 v 18.14063 l 1.73438,-2.08594 0.008,-0.0117 c 0.19531,-0.23438 4.08203,-4.81641 10.625,-9.3125 6.54688,-4.50391 15.72656,-8.90234 26.53906,-8.89844 7.34766,-0.004 16.16016,1.57031 23.10938,3.14844 3.47656,0.78906 6.48828,1.57812 8.62891,2.17187 1.07031,0.29688 1.92187,0.54297 2.50781,0.71485 0.29297,0.0859 0.51562,0.15234 0.66797,0.19922 0.15234,0.0469 0.22656,0.0703 0.22656,0.0703 l -0.008,-0.004 c 0.0234,0.008 3.64062,1.15625 8.99218,2.30078 5.35547,1.14844 12.4375,2.30079 19.41797,2.30079 9.19922,0 19.21875,-1.63282 27.67578,-3.48438 8.45704,-1.85156 15.34766,-3.92969 18.24219,-4.84766 l -0.29687,-0.93359 h -0.97657 v 20.92578 h 0.97657 l -0.39453,-0.89453 -0.0547,0.0234 c -0.59766,0.26172 -5.97656,2.5625 -13.90235,4.79297 -7.92578,2.23047 -18.39843,4.39062 -29.17578,4.39062 -0.30468,0 -0.60937,-0.004 -0.91797,-0.008 -9.6875,-0.10547 -19.5,-3.08594 -28.91015,-6.07813 -4.70313,-1.49609 -9.3086,-2.99218 -13.75781,-4.11718 -4.44922,-1.125 -8.7461,-1.88672 -12.84375,-1.88672 -0.67188,0 -1.33594,0.0195 -1.9961,0.0625 -7.35156,0.48047 -13.25781,2.41406 -18.13281,5.30469 -4.87891,2.88671 -8.71484,6.71093 -12.00391,10.92187 l -0.043,0.0547 -0.0352,0.0625 c -0.30469,0.53125 -0.67188,0.92969 -1.0625,1.23828 -0.58203,0.46094 -1.22656,0.71875 -1.72266,0.85547 -0.24609,0.0664 -0.45703,0.10547 -0.59375,0.125 -0.0703,0.0117 -0.125,0.0156 -0.15625,0.0195 h -0.0352 l 0.0312,0.52734 -0.0273,-0.52734 h -0.004 l 0.0312,0.52734 -0.0273,-0.52734 0.0469,0.98047 v -0.98047 h -22.80078 v 0.98047 l 0.0469,-0.98047 -0.0156,0.36328 0.0234,-0.36328 h -0.008 l -0.0156,0.36328 0.0234,-0.36328 c -0.0195,0 -0.66406,-0.043 -1.41406,-0.35547 -0.375,-0.15234 -0.77734,-0.37109 -1.14844,-0.67187 -0.375,-0.30469 -0.72265,-0.69141 -1.00781,-1.20313 l -0.0391,-0.0664 -0.0469,-0.0586 c -3.28515,-4.21094 -7.125,-8.03516 -12.0039,-10.92187 -4.875,-2.89063 -10.78516,-4.82422 -18.14063,-5.30469 -0.64843,-0.043 -1.30859,-0.0625 -1.97265,-0.0625 -4.144535,0 -8.613285,0.77344 -13.269535,1.91797 -6.976562,1.71484 -14.367187,4.26562 -21.609375,6.38281 -7.242187,2.11328 -14.332031,3.78516 -20.632812,3.78125 -10.984375,0.004 -22.03125,-2.29688 -30.3125,-4.60547 -4.140625,-1.15234 -7.59375,-2.30469 -10.007813,-3.16797 C 5.90625,300.45816 4.957031,300.09878 4.3125,299.84878 3.992188,299.72378 3.746094,299.62613 3.582031,299.55972 3.5,299.52456 3.4375,299.50113 3.394531,299.4816 l -0.058593,-0.0234 -0.375,0.90234 H 3.9375 V 63.325346 H 2.960938 l -0.375,0.90625 c 0.027343,0.0078 6.203125,2.546875 15.078125,5.085937 8.871093,2.542969 20.429687,5.09375 31.269531,5.09375 10.847656,0 19.570312,-2.597656 28.484375,-5.144531 8.921875,-2.554688 18.042969,-5.070313 29.875001,-5.074219 11.74609,0 22.29687,3.980469 29.90234,7.976563 3.80469,1.996093 6.86719,3.996093 8.97656,5.492187 1.05469,0.746094 1.8711,1.367188 2.42188,1.800781 0.27344,0.21875 0.48047,0.386719 0.62109,0.5 0.0703,0.05859 0.1211,0.101563 0.15235,0.128907 l 0.0391,0.03125 0.0117,0.0078 0.63672,0.550781 0.63672,-0.550781 0.0117,-0.0078 c 0.2461,-0.210938 4.98829,-4.210938 12.56641,-8.140625 7.57422,-3.933594 17.97656,-7.789063 29.53906,-7.789063 11.83203,0.0039 20.95313,2.519531 29.875,5.074219 8.91407,2.546875 17.64063,5.144531 28.49219,5.144531 10.84375,0 22.40234,-2.550781 31.27344,-5.09375 8.86719,-2.539062 15.04297,-5.078125 15.0664,-5.085937 l -0.37109,-0.90625 h -0.98047 v 22.828125 h 0.98047 l -0.34766,-0.914063 c -2.66796,1.015625 -8.89843,3.246094 -16.95703,5.21875 -8.0625,1.976563 -17.95312,3.6875 -27.92578,3.6875 h -0.0352 l -0.0352,0.0039 h -0.008 c -0.0625,0.0039 -0.39453,0.02344 -1.00391,0.02344 -2.82031,0 -11.51172,-0.414063 -25.70312,-4.699219 -8.94532,-2.707031 -16.13282,-4.175781 -22.14063,-4.96875 -6.01172,-0.792969 -10.84766,-0.90625 -15.0625,-0.90625 -11.80469,0 -21.45703,4.457031 -28.14062,8.894531 -6.69141,4.433594 -10.4375,8.863286 -10.48047,8.910156 l -0.23047,0.27344 v 18.14453 l 1.73047,-2.08984 0.008,-0.008 c 0.19922,-0.23828 4.08203,-4.8164 10.625,-9.3125 6.54687,-4.5 15.72656,-8.898434 26.54297,-8.894528 7.34375,-0.0039 16.16015,1.566408 23.10547,3.144528 3.47656,0.78907 6.48828,1.57813 8.6289,2.16797 1.07032,0.29688 1.92578,0.54297 2.50782,0.71485 0.29296,0.0859 0.51953,0.15234 0.66796,0.19921 0.15235,0.0469 0.22657,0.0703 0.23047,0.0703 l -0.008,-0.004 c 0.0234,0.008 3.64063,1.15625 8.99219,2.30469 5.35156,1.14844 12.43359,2.30469 19.41406,2.30469 9.19922,0 19.22266,-1.63282 27.67969,-3.48829 8.45703,-1.85546 15.34375,-3.93359 18.23828,-4.84765 l -0.29297,-0.9336 h -0.98047 v 20.66407 h 0.98047 l -0.35156,-0.91407 c -2.66406,1.01954 -8.89453,3.2461 -16.95703,5.21875 -8.0586,1.97266 -17.94922,3.6875 -27.92578,3.6875 h -0.0781 c -0.0586,0.004 -0.39844,0.0234 -1.01172,0.0234 -2.82812,0 -11.51562,-0.41015 -25.69531,-4.69922 -8.94141,-2.69922 -16.12891,-4.17187 -22.14063,-4.96484 -6.00781,-0.79297 -10.84375,-0.91016 -15.05859,-0.91016 -11.80469,0.004 -21.45703,4.46094 -28.14453,8.89453 -6.6875,4.44141 -10.4375,8.86719 -10.47656,8.91407 l -0.23438,0.27343 v 18.14454 l 1.73438,-2.08985 0.008,-0.008 c 0.19531,-0.23828 4.08203,-4.82031 10.625,-9.31641 6.54687,-4.5 15.72656,-8.89843 26.53906,-8.89843 7.34766,0 16.16406,1.57031 23.10938,3.14843 3.47656,0.78907 6.48828,1.57813 8.6289,2.17188 1.07032,0.29687 1.92578,0.53906 2.50782,0.71484 0.29296,0.0859 0.51562,0.15235 0.66796,0.19531 0.15235,0.0469 0.22657,0.0703 0.22657,0.0703 h -0.004 c 0.0195,0.004 3.64063,1.15625 8.98828,2.30468 5.35547,1.14844 12.4375,2.30079 19.41797,2.30469 v -0.98047 l -0.0664,0.97657 0.0664,-0.97657"
       id="path47"
       inkscape:connector-curvature="0" />
  </g>
</svg>
